<?xml version="1.0" encoding="UTF-8"?>
<svg id="Layer_2" data-name="Layer 2" xmlns="http://www.w3.org/2000/svg" viewBox="0 0 142.41 37.1">
  <defs>
    <style>
      .logo-text {
        fill: #35637c;
      }

      .dot {
        fill: #cc5858;
      }
    </style>
  </defs>
  <g id="Layer_2-2" data-name="Layer 2">
    <g>
      <path class="logo-text" d="M0,36.48V10.08h6v4.18l-1.1-1.2c.53-1.2,1.27-2.1,2.23-2.7s2.07-.9,3.34-.9c2,0,3.56.74,4.67,2.22,1.11,1.48,1.67,3.54,1.67,6.18v18.62h-6v-18.62c0-.72-.21-1.3-.62-1.74s-1.01-.66-1.78-.66-1.36.22-1.78.66c-.42.44-.62,1.02-.62,1.74v18.62H0Z"/>
      <path class="logo-text" d="M29.81,37.1c-1.71,0-3.2-.37-4.45-1.12-1.26-.74-2.23-1.78-2.92-3.11-.69-1.33-1.03-2.88-1.03-4.66v-9.89c0-1.78.34-3.33,1.03-4.67.69-1.34,1.66-2.37,2.92-3.11,1.26-.74,2.74-1.1,4.45-1.1,2.58,0,4.62.81,6.13,2.44,1.51,1.62,2.27,3.77,2.27,6.44v6.48h-11.57v-5.52h5.57v-1.44c0-.72-.21-1.3-.62-1.74-.42-.44-1.01-.66-1.78-.66s-1.36.22-1.78.66-.62,1.02-.62,1.74v10.85c0,.72.21,1.3.62,1.74.42.44,1.01.66,1.78.66s1.36-.22,1.78-.66c.42-.44.62-1.02.62-1.74v-.96h6v.48c0,2.66-.76,4.8-2.27,6.43-1.51,1.63-3.56,2.45-6.13,2.45Z"/>
      <path class="logo-text" d="M52.85,36.82c-2.56,0-4.6-.74-6.12-2.21-1.52-1.47-2.28-3.54-2.28-6.19v-12.82h-4.32v-5.52h4.32V3.84h6v6.24h5.04v5.52h-5.04v12.82c0,.72.21,1.3.62,1.74.42.44,1.01.66,1.78.66h2.64v6h-2.64Z"/>
      <path class="logo-text" d="M61.39,36.48V15.6h-4.8v-5.52h4.8v-1.68c0-1.62.34-3.06,1.03-4.32.69-1.26,1.66-2.26,2.92-2.99,1.26-.73,2.74-1.09,4.45-1.09h2.64v6h-2.64c-.77,0-1.36.22-1.78.66s-.62,1.02-.62,1.74v1.68h5.04v5.52h-5.04v20.88h-6ZM75.26,36.48V10.08h6v26.4h-6Z"/>
      <path class="logo-text" d="M86.93,36.48V10.08h6v4.18l-1.1-1.2c.53-1.2,1.27-2.1,2.23-2.7s2.07-.9,3.34-.9c2,0,3.56.74,4.67,2.22,1.11,1.48,1.67,3.54,1.67,6.18v18.62h-6v-18.62c0-.72-.21-1.3-.62-1.74s-1.01-.66-1.78-.66-1.36.22-1.78.66c-.42.44-.62,1.02-.62,1.74v18.62h-6Z"/>
      <path class="logo-text" d="M116.73,37.1c-1.71,0-3.2-.37-4.45-1.12-1.26-.74-2.23-1.78-2.92-3.11-.69-1.33-1.03-2.88-1.03-4.66v-9.89c0-1.78.34-3.33,1.03-4.67.69-1.34,1.66-2.37,2.92-3.11,1.26-.74,2.74-1.1,4.45-1.1,2.58,0,4.62.81,6.13,2.44,1.51,1.62,2.27,3.77,2.27,6.44v6.48h-11.57v-5.52h5.57v-1.44c0-.72-.21-1.3-.62-1.74-.42-.44-1.01-.66-1.78-.66s-1.36.22-1.78.66-.62,1.02-.62,1.74v10.85c0,.72.21,1.3.62,1.74.42.44,1.01.66,1.78.66s1.36-.22,1.78-.66c.42-.44.62-1.02.62-1.74v-.96h6v.48c0,2.66-.76,4.8-2.27,6.43-1.51,1.63-3.56,2.45-6.13,2.45Z"/>
      <path class="logo-text" d="M139.77,36.82c-2.56,0-4.6-.74-6.12-2.21-1.52-1.47-2.28-3.54-2.28-6.19v-12.82h-4.32v-5.52h4.32V3.84h6v6.24h5.04v5.52h-5.04v12.82c0,.72.21,1.3.62,1.74.42.44,1.01.66,1.78.66h2.64v6h-2.64Z"/>
      <ellipse class="dot" cx="78.26" cy="5.04" rx="3" ry="3.12"/>
    </g>
  </g>
</svg>